<?xml version="1.0" encoding="UTF-8" standalone="no"?>
<!-- Created with Inkscape (http://www.inkscape.org/) -->

<svg
   xmlns:dc="http://purl.org/dc/elements/1.1/"
   xmlns:cc="http://creativecommons.org/ns#"
   xmlns:rdf="http://www.w3.org/1999/02/22-rdf-syntax-ns#"
   xmlns:svg="http://www.w3.org/2000/svg"
   xmlns="http://www.w3.org/2000/svg"
   xmlns:sodipodi="http://sodipodi.sourceforge.net/DTD/sodipodi-0.dtd"
   xmlns:inkscape="http://www.inkscape.org/namespaces/inkscape"
   width="215.68529"
   height="63.816299"
   id="svg5430"
   version="1.1"
   inkscape:version="0.48.4 r9939"
   sodipodi:docname="logo.svg"
   inkscape:export-filename="/home/diafygi/Dropbox/dev/keencasa/logo.png"
   inkscape:export-xdpi="223.66"
   inkscape:export-ydpi="223.66">
  <defs
     id="defs5432" />
  <sodipodi:namedview
     id="base"
     pagecolor="#ffffff"
     bordercolor="#666666"
     borderopacity="1.0"
     inkscape:pageopacity="0.0"
     inkscape:pageshadow="2"
     inkscape:zoom="1.979899"
     inkscape:cx="61.77042"
     inkscape:cy="-19.662283"
     inkscape:document-units="px"
     inkscape:current-layer="layer1"
     showgrid="false"
     inkscape:window-width="1440"
     inkscape:window-height="851"
     inkscape:window-x="0"
     inkscape:window-y="0"
     inkscape:window-maximized="1"
     fit-margin-top="5"
     fit-margin-left="5"
     fit-margin-right="5"
     fit-margin-bottom="5" />
  <metadata
     id="metadata5435">
    <rdf:RDF>
      <cc:Work
         rdf:about="">
        <dc:format>image/svg+xml</dc:format>
        <dc:type
           rdf:resource="http://purl.org/dc/dcmitype/StillImage" />
        <dc:title></dc:title>
      </cc:Work>
    </rdf:RDF>
  </metadata>
  <g
     inkscape:label="Layer 1"
     inkscape:groupmode="layer"
     id="layer1"
     transform="translate(-106.17906,-50.525453)">
    <g
       id="g4616"
       style="fill:#4d4d4d;fill-opacity:1">
      <text
         sodipodi:linespacing="88%"
         id="text5457-3-8"
         y="109.03854"
         x="239.59872"
         style="font-size:40px;font-style:normal;font-weight:normal;line-height:87.99999952%;letter-spacing:0px;word-spacing:0px;fill:#4d4d4d;fill-opacity:1;stroke:none;font-family:Sans"
         xml:space="preserve"><tspan
           style="font-style:normal;font-variant:normal;font-weight:normal;font-stretch:normal;line-height:87.99999952%;fill:#4d4d4d;fill-opacity:1;font-family:Concert One;-inkscape-font-specification:Concert One"
           id="tspan5461-1-9"
           y="109.03854"
           x="239.59872"
           sodipodi:role="line">Casa</tspan></text>
      <g
         transform="matrix(0.58622306,0,0,0.58622306,88.786564,45.167882)"
         id="g4610"
         style="fill:#4d4d4d;fill-opacity:1">
        <g
           style="font-size:93.51689911px;font-style:normal;font-weight:normal;line-height:125%;letter-spacing:0px;word-spacing:0px;fill:#4d4d4d;fill-opacity:1;stroke:none;font-family:Sans"
           id="text3017">
          <path
             d="m 244.63493,80.770922 c 0,-0.104371 0,-0.208743 -0.0522,-0.313115 L 214.57592,55.721753 184.56911,80.457807 c 0,0.104372 -0.0522,0.208744 -0.0522,0.313115 l 0,25.049168 c 0,1.8265 1.51339,3.33989 3.33989,3.33989 l 20.03934,0 0,-20.039335 13.35955,0 0,20.039335 20.03934,0 c 1.8265,0 3.33989,-1.51339 3.33989,-3.33989 l 0,-25.049168 m 11.63742,-3.600818 c 0.57405,-0.678414 0.46968,-1.774317 -0.20874,-2.34836 l -15.42868,-13.49781 0,-17.291794 c 0,-0.939343 -0.7306,-1.669944 -1.66995,-1.669944 l -6.01966,0 c -0.93935,0 -1.66995,0.730601 -1.66995,1.669944 l 0,10.176225 -12.73333,-10.645897 c -2.1918,-1.8265 -5.74043,-1.8265 -7.93223,0 l -37.52157,31.259276 c -0.67842,0.574043 -0.78279,1.669946 -0.20875,2.34836 l 3.23552,3.861747 c 0.26093,0.313114 0.67842,0.521858 1.0959,0.574043 0.46967,0.05219 0.88716,-0.104371 1.25246,-0.3653 l 36.11255,-30.111189 36.11256,30.111189 c 0.31311,0.260929 0.67841,0.3653 1.0959,0.3653 0.0522,0 0.10437,0 0.15656,0 0.41748,-0.05219 0.83497,-0.260929 1.0959,-0.574043 l 3.23551,-3.861747"
             style="font-variant:normal;font-stretch:normal;fill:#4d4d4d;fill-opacity:1;font-family:FontAwesome;-inkscape-font-specification:FontAwesome"
             id="path4538"
             inkscape:connector-curvature="0"
             sodipodi:nodetypes="ccccsssccccssccccssssccccccccccsccc" />
        </g>
        <g
           style="font-size:39.77941513px;font-style:normal;font-weight:normal;line-height:125%;letter-spacing:0px;word-spacing:0px;fill:#4d4d4d;fill-opacity:1;stroke:none;font-family:Sans"
           id="text4540"
           transform="matrix(0.74146897,0,0,0.74146897,61.172822,10.934279)">
          <path
             d="m 240.25701,36.075185 c 0,-2.353021 -1.90906,-4.26208 -4.26208,-4.26208 -2.35302,0 -4.26208,1.909059 -4.26208,4.26208 0,2.353021 1.90906,4.26208 4.26208,4.26208 2.35302,0 4.26208,-1.909059 4.26208,-4.26208 m 11.36555,2.730395 c -0.37737,-4.728241 -2.44182,-9.190114 -5.81597,-12.542059 -3.35194,-3.374143 -7.81382,-5.438592 -12.54206,-5.815964 -0.0444,0 -0.0666,0 -0.11099,0 -0.35517,0 -0.71034,0.133191 -0.95453,0.377372 -0.31077,0.26638 -0.46616,0.643752 -0.46616,1.043322 l 0,2.996775 c 0,0.732544 0.55496,1.3319 1.2875,1.398495 6.77049,0.643751 12.14249,6.015755 12.78624,12.786241 0.0666,0.732544 0.66595,1.287503 1.3985,1.287503 l 2.99677,0 c 0.39957,0 0.77695,-0.155389 1.04333,-0.466165 0.26637,-0.288578 0.39956,-0.66595 0.37737,-1.06552 m 11.36554,0.0444 c -0.39957,-7.76941 -3.66273,-15.072675 -9.19011,-20.577856 -5.50518,-5.52738 -12.80844,-8.7905411 -20.57785,-9.1901107 -0.0222,0 -0.0444,0 -0.0666,0 -0.35517,0 -0.71034,0.1331902 -0.97672,0.39957 -0.28858,0.2663797 -0.44397,0.6215537 -0.44397,1.0211237 l 0,3.174361 c 0,0.732545 0.57716,1.354099 1.3319,1.398496 12.89722,0.754742 23.17506,11.032585 23.90761,23.929804 0.0444,0.754743 0.66595,1.3319 1.42069,1.3319 l 3.17436,0 c 0.39957,0 0.75474,-0.155389 1.02112,-0.443967 0.28858,-0.288578 0.42177,-0.66595 0.39957,-1.043321"
             style="font-variant:normal;font-stretch:normal;fill:#4d4d4d;fill-opacity:1;font-family:FontAwesome;-inkscape-font-specification:FontAwesome"
             id="path4545"
             inkscape:connector-curvature="0" />
        </g>
      </g>
      <text
         sodipodi:linespacing="88%"
         id="text5457-68"
         y="109.1855"
         x="108.44469"
         style="font-size:40px;font-style:normal;font-weight:normal;line-height:87.99999952%;letter-spacing:0px;word-spacing:0px;fill:#4d4d4d;fill-opacity:1;stroke:none;font-family:Sans"
         xml:space="preserve"><tspan
           style="font-style:normal;font-variant:normal;font-weight:normal;font-stretch:normal;line-height:87.99999952%;fill:#4d4d4d;fill-opacity:1;font-family:Concert One;-inkscape-font-specification:Concert One"
           id="tspan5461-27"
           y="109.1855"
           x="108.44469"
           sodipodi:role="line">Keen</tspan></text>
    </g>
  </g>
</svg>
